<svg width="53" height="53" viewBox="0 0 53 53" fill="none" xmlns="http://www.w3.org/2000/svg">
<g filter="url(#filter0_d_278_2168)">
<path d="M25.5008 43.5755C29.0425 43.5755 32.3447 42.5518 35.1344 40.7909L26.9622 34.235C26.1569 34.4092 25.2448 34.453 24.274 34.337C20.8848 33.9329 18.0627 31.7428 17.9734 29.4466C17.8831 27.1504 20.5585 25.6169 23.9486 26.0206C24.4339 26.0782 24.9086 26.1742 25.3632 26.3009C25.1409 25.8833 24.9447 25.4413 24.7831 24.9805C23.6531 21.7592 24.5715 18.8145 26.8319 18.4041C29.0933 17.9929 31.8429 20.2733 32.9717 23.4944C33.2953 24.4172 33.4503 25.3165 33.4545 26.1407L41.9599 32.9647C42.9928 30.688 43.5743 28.1637 43.5743 25.5002C43.5743 15.5181 35.4822 7.4248 25.499 7.4248C15.5168 7.4248 7.42358 15.5181 7.42358 25.5002C7.42348 35.4822 15.5186 43.5755 25.5008 43.5755Z" fill="#39C442"/>
<path d="M25.5008 43.5755C29.0425 43.5755 32.3447 42.5518 35.1344 40.7909L26.9622 34.235C26.1569 34.4092 25.2448 34.453 24.274 34.337C20.8848 33.9329 18.0627 31.7428 17.9734 29.4466C17.8831 27.1504 20.5585 25.6169 23.9486 26.0206C24.4339 26.0782 24.9086 26.1742 25.3632 26.3009C25.1409 25.8833 24.9447 25.4413 24.7831 24.9805C23.6531 21.7592 24.5715 18.8145 26.8319 18.4041C29.0933 17.9929 31.8429 20.2733 32.9717 23.4944C33.2953 24.4172 33.4503 25.3165 33.4545 26.1407L41.9599 32.9647C42.9928 30.688 43.5743 28.1637 43.5743 25.5002C43.5743 15.5181 35.4822 7.4248 25.499 7.4248C15.5168 7.4248 7.42358 15.5181 7.42358 25.5002C7.42348 35.4822 15.5186 43.5755 25.5008 43.5755Z" stroke="#061407"/>
</g>
<g filter="url(#filter1_d_278_2168)">
<path d="M25.4993 50.5C39.2835 50.5 50.4985 39.285 50.4985 25.5C50.4985 11.7155 39.2835 0.5 25.4993 0.5C11.7143 0.5 0.5 11.7145 0.5 25.5C0.5 39.2844 11.7143 50.5 25.4993 50.5ZM25.4993 4.78613C36.9205 4.78613 46.2116 14.0783 46.2116 25.5C46.2116 36.9213 36.9199 46.2137 25.4993 46.2137C14.0774 46.2137 4.78538 36.9214 4.78538 25.5C4.78634 14.0783 14.0773 4.78613 25.4993 4.78613Z" fill="#39C442"/>
<path d="M25.4993 50.5C39.2835 50.5 50.4985 39.285 50.4985 25.5C50.4985 11.7155 39.2835 0.5 25.4993 0.5C11.7143 0.5 0.5 11.7145 0.5 25.5C0.5 39.2844 11.7143 50.5 25.4993 50.5ZM25.4993 4.78613C36.9205 4.78613 46.2116 14.0783 46.2116 25.5C46.2116 36.9213 36.9199 46.2137 25.4993 46.2137C14.0774 46.2137 4.78538 36.9214 4.78538 25.5C4.78634 14.0783 14.0773 4.78613 25.4993 4.78613Z" stroke="#061407"/>
</g>
<defs>
<filter id="filter0_d_278_2168" x="6.92358" y="6.9248" width="41.6506" height="41.6506" filterUnits="userSpaceOnUse" color-interpolation-filters="sRGB">
<feFlood flood-opacity="0" result="BackgroundImageFix"/>
<feColorMatrix in="SourceAlpha" type="matrix" values="0 0 0 0 0 0 0 0 0 0 0 0 0 0 0 0 0 0 127 0" result="hardAlpha"/>
<feOffset dx="4.5" dy="4.5"/>
<feComposite in2="hardAlpha" operator="out"/>
<feColorMatrix type="matrix" values="0 0 0 0 0.0235294 0 0 0 0 0.0784314 0 0 0 0 0.027451 0 0 0 1 0"/>
<feBlend mode="normal" in2="BackgroundImageFix" result="effect1_dropShadow_278_2168"/>
<feBlend mode="normal" in="SourceGraphic" in2="effect1_dropShadow_278_2168" result="shape"/>
</filter>
<filter id="filter1_d_278_2168" x="0" y="0" width="52.9985" height="53" filterUnits="userSpaceOnUse" color-interpolation-filters="sRGB">
<feFlood flood-opacity="0" result="BackgroundImageFix"/>
<feColorMatrix in="SourceAlpha" type="matrix" values="0 0 0 0 0 0 0 0 0 0 0 0 0 0 0 0 0 0 127 0" result="hardAlpha"/>
<feOffset dx="2" dy="2"/>
<feComposite in2="hardAlpha" operator="out"/>
<feColorMatrix type="matrix" values="0 0 0 0 0.0235294 0 0 0 0 0.0784314 0 0 0 0 0.027451 0 0 0 1 0"/>
<feBlend mode="normal" in2="BackgroundImageFix" result="effect1_dropShadow_278_2168"/>
<feBlend mode="normal" in="SourceGraphic" in2="effect1_dropShadow_278_2168" result="shape"/>
</filter>
</defs>
</svg>
